<?xml version="1.0" encoding="utf-8"?>
<!-- Generator: Adobe Illustrator 16.0.0, SVG Export Plug-In . SVG Version: 6.00 Build 0)  -->
<!DOCTYPE svg PUBLIC "-//W3C//DTD SVG 1.1//EN" "http://www.w3.org/Graphics/SVG/1.1/DTD/svg11.dtd">
<svg version="1.1" id="Layer_4" xmlns="http://www.w3.org/2000/svg" xmlns:xlink="http://www.w3.org/1999/xlink" x="0px" y="0px"
	 width="2000px" height="2000px" viewBox="0 0 2000 2000" enable-background="new 0 0 2000 2000" xml:space="preserve">
<g>
	<circle cx="992.03" cy="772.27" r="89.002"/>
	<path d="M1001.128,26.603c-473.388,0-857.143,383.756-857.143,857.137c0,255.599,111.881,485.059,289.334,642.103h226.632
		l124.846-490.788c-91.765-65.003-151.666-172.018-151.666-293.029c0-198.192,160.665-358.857,358.856-358.857
		c198.189,0,358.854,160.665,358.854,358.857c0,121.011-59.9,228.026-151.666,293.029l133.619,490.788h236.139
		c177.457-157.042,289.334-386.504,289.334-642.103C1858.268,410.359,1474.514,26.603,1001.128,26.603z"/>
	<path d="M1081.191,1691.999v-382.387l-67.721-43.245l52.969-32.854l-47.6-30.171l47.6-30.84l-33.521-22.796l106.606-66.377
		l-105.268-59.003l72.494-41.066c-38.469-36.206-65.371-68.892-112.05-68.892c-47.771,0-86.496,38.724-84.484,80.457v690.296
		c-45.651,34.241-74.566,83.289-74.566,139.121c0,87.479,70.914,158.393,158.392,158.393c87.475,0,158.389-70.914,158.389-158.393
		C1152.433,1768.969,1124.103,1720.336,1081.191,1691.999z"/>
</g>
</svg>
